# xmcd CD database file
# Copyright (C) 1993-1998 Ti Kan
#
# Track frame offsets:
#  183
#  13405
#  27863
#  42110
#  50093
#  70665
#  95705
#  104863
#  117680
#  137530
#  146488
#  162615
#
# Disc length: 2322 seconds
#
# Revision: 1
# Processed by: cddbd v1.4b41PL1 Copyright (c) Steve Scherf et al.
# Submitted via: CDWizzard Release:4.31
#
DISCID=b709100c
DTITLE=Anita O'Day - Once Upon A Summertime
DYEAR=1900
DGENRE=
TTITLE0=Sweet Georgia Brown
TTITLE1=Love For Sale
TTITLE2=S'Wonderful
TTITLE3=They Can't Take That Away From Me
TTITLE4=Boogie Blues
TTITLE5=Tea For Two
TTITLE6=Once Upon a Summertime
TTITLE7=The Girl From Ipanema
TTITLE8=Is You Is Or Is You Ain't My Baby
TTITLE9=Night And Day
TTITLE10=Anita's Blues
TTITLE11=A Nightingale Sang In Berkeley Square
EXTD=
EXTT0=
EXTT1=
EXTT2=
EXTT3=
EXTT4=
EXTT5=
EXTT6=
EXTT7=
EXTT8=
EXTT9=
EXTT10=
EXTT11=
PLAYORDER=
